<mxfile host="app.diagrams.net" modified="2020-08-27T17:18:19.996Z" agent="5.0 (Macintosh; Intel Mac OS X 10_13_3) AppleWebKit/537.36 (KHTML, like Gecko) Chrome/80.0.3987.132 Safari/537.36" etag="GOD-ltXplV1TEiK5Yerj" version="13.6.5" type="github">
  <diagram id="bXQ1CHwTw1gpECQVsluk" name="Page-1">
    <mxGraphModel dx="2893" dy="2274" grid="1" gridSize="10" guides="1" tooltips="1" connect="1" arrows="1" fold="1" page="1" pageScale="1" pageWidth="827" pageHeight="1169" math="0" shadow="0">
      <root>
        <mxCell id="0" />
        <mxCell id="1" parent="0" />
        <mxCell id="O3IuZ1JwcFy3WilJVtzP-146" value="" style="rounded=1;whiteSpace=wrap;html=1;fontSize=14;fillColor=#dae8fc;strokeColor=#6c8ebf;" vertex="1" parent="1">
          <mxGeometry x="30" y="30" width="780" height="690" as="geometry" />
        </mxCell>
        <mxCell id="O3IuZ1JwcFy3WilJVtzP-139" value="" style="rounded=1;whiteSpace=wrap;html=1;fillColor=#dae8fc;strokeColor=#6c8ebf;" vertex="1" parent="1">
          <mxGeometry x="1145" y="62.5" width="370" height="425" as="geometry" />
        </mxCell>
        <mxCell id="O3IuZ1JwcFy3WilJVtzP-138" value="" style="rounded=1;whiteSpace=wrap;html=1;fillColor=#dae8fc;strokeColor=#6c8ebf;" vertex="1" parent="1">
          <mxGeometry x="1120" y="55" width="370" height="425" as="geometry" />
        </mxCell>
        <mxCell id="O3IuZ1JwcFy3WilJVtzP-21" value="" style="edgeStyle=none;rounded=0;orthogonalLoop=1;jettySize=auto;html=1;" edge="1" parent="1" source="O3IuZ1JwcFy3WilJVtzP-18" target="O3IuZ1JwcFy3WilJVtzP-20">
          <mxGeometry relative="1" as="geometry" />
        </mxCell>
        <mxCell id="O3IuZ1JwcFy3WilJVtzP-30" value="" style="edgeStyle=none;rounded=0;orthogonalLoop=1;jettySize=auto;html=1;" edge="1" parent="1" source="O3IuZ1JwcFy3WilJVtzP-18" target="O3IuZ1JwcFy3WilJVtzP-29">
          <mxGeometry relative="1" as="geometry" />
        </mxCell>
        <mxCell id="O3IuZ1JwcFy3WilJVtzP-18" value="receive dowkder" style="rounded=1;whiteSpace=wrap;html=1;fillColor=#b0e3e6;strokeColor=#0e8088;" vertex="1" parent="1">
          <mxGeometry x="80" y="160" width="230" height="70" as="geometry" />
        </mxCell>
        <mxCell id="O3IuZ1JwcFy3WilJVtzP-20" value="kafka" style="shape=process;whiteSpace=wrap;html=1;backgroundOutline=1;fillColor=#fff2cc;strokeColor=#d6b656;" vertex="1" parent="1">
          <mxGeometry x="-220" y="210" width="220" height="60" as="geometry" />
        </mxCell>
        <mxCell id="O3IuZ1JwcFy3WilJVtzP-23" value="" style="edgeStyle=none;rounded=0;orthogonalLoop=1;jettySize=auto;html=1;" edge="1" parent="1" source="O3IuZ1JwcFy3WilJVtzP-22" target="O3IuZ1JwcFy3WilJVtzP-20">
          <mxGeometry relative="1" as="geometry" />
        </mxCell>
        <mxCell id="O3IuZ1JwcFy3WilJVtzP-22" value="曲库系统" style="rounded=1;whiteSpace=wrap;html=1;fillColor=#fff2cc;strokeColor=#d6b656;" vertex="1" parent="1">
          <mxGeometry x="-220" y="30" width="220" height="70" as="geometry" />
        </mxCell>
        <mxCell id="O3IuZ1JwcFy3WilJVtzP-37" value="" style="edgeStyle=none;rounded=0;orthogonalLoop=1;jettySize=auto;html=1;" edge="1" parent="1" source="O3IuZ1JwcFy3WilJVtzP-34" target="O3IuZ1JwcFy3WilJVtzP-35">
          <mxGeometry relative="1" as="geometry" />
        </mxCell>
        <mxCell id="O3IuZ1JwcFy3WilJVtzP-167" style="edgeStyle=orthogonalEdgeStyle;rounded=0;orthogonalLoop=1;jettySize=auto;html=1;exitX=0.5;exitY=1;exitDx=0;exitDy=0;exitPerimeter=0;entryX=0.565;entryY=0.014;entryDx=0;entryDy=0;entryPerimeter=0;fontSize=18;fontColor=#FF0080;align=left;" edge="1" parent="1" source="O3IuZ1JwcFy3WilJVtzP-29" target="O3IuZ1JwcFy3WilJVtzP-35">
          <mxGeometry relative="1" as="geometry" />
        </mxCell>
        <mxCell id="O3IuZ1JwcFy3WilJVtzP-171" value="&lt;font color=&quot;#000000&quot;&gt;&lt;span style=&quot;font-size: 14px&quot;&gt;N&lt;/span&gt;&lt;/font&gt;" style="edgeLabel;html=1;align=center;verticalAlign=middle;resizable=0;points=[];fontSize=18;fontColor=#FF0080;" vertex="1" connectable="0" parent="O3IuZ1JwcFy3WilJVtzP-167">
          <mxGeometry x="-0.0138" y="-2" relative="1" as="geometry">
            <mxPoint as="offset" />
          </mxGeometry>
        </mxCell>
        <mxCell id="O3IuZ1JwcFy3WilJVtzP-169" style="edgeStyle=orthogonalEdgeStyle;rounded=0;orthogonalLoop=1;jettySize=auto;html=1;exitX=1;exitY=0.5;exitDx=0;exitDy=0;exitPerimeter=0;entryX=0;entryY=0.5;entryDx=0;entryDy=0;fontSize=18;fontColor=#FF0080;align=left;" edge="1" parent="1" source="O3IuZ1JwcFy3WilJVtzP-29" target="O3IuZ1JwcFy3WilJVtzP-47">
          <mxGeometry relative="1" as="geometry" />
        </mxCell>
        <mxCell id="O3IuZ1JwcFy3WilJVtzP-170" value="Y" style="edgeLabel;html=1;align=center;verticalAlign=bottom;resizable=0;points=[];fontSize=14;fontColor=#000000;" vertex="1" connectable="0" parent="O3IuZ1JwcFy3WilJVtzP-169">
          <mxGeometry x="0.3193" y="-1" relative="1" as="geometry">
            <mxPoint as="offset" />
          </mxGeometry>
        </mxCell>
        <mxCell id="O3IuZ1JwcFy3WilJVtzP-29" value="更新热度歌曲 and 已经生成过指纹" style="strokeWidth=2;html=1;shape=mxgraph.flowchart.decision;whiteSpace=wrap;fillColor=#fad7ac;strokeColor=#b46504;" vertex="1" parent="1">
          <mxGeometry x="115" y="330" width="160" height="100" as="geometry" />
        </mxCell>
        <mxCell id="O3IuZ1JwcFy3WilJVtzP-35" value="download worker" style="rounded=1;whiteSpace=wrap;html=1;fillColor=#b0e3e6;strokeColor=#0e8088;" vertex="1" parent="1">
          <mxGeometry x="70" y="500" width="230" height="70" as="geometry" />
        </mxCell>
        <mxCell id="O3IuZ1JwcFy3WilJVtzP-34" value="download worker" style="rounded=1;whiteSpace=wrap;html=1;fillColor=#b1ddf0;strokeColor=#10739e;" vertex="1" parent="1">
          <mxGeometry x="70" y="510" width="240" height="70" as="geometry" />
        </mxCell>
        <mxCell id="O3IuZ1JwcFy3WilJVtzP-47" value="corrdior worker" style="rounded=1;whiteSpace=wrap;html=1;fillColor=#b0e3e6;strokeColor=#0e8088;" vertex="1" parent="1">
          <mxGeometry x="540" y="345" width="210" height="70" as="geometry" />
        </mxCell>
        <mxCell id="O3IuZ1JwcFy3WilJVtzP-158" style="edgeStyle=orthogonalEdgeStyle;rounded=0;orthogonalLoop=1;jettySize=auto;html=1;exitX=0.75;exitY=1;exitDx=0;exitDy=0;fontSize=18;fontColor=#FF0080;align=left;" edge="1" parent="1" source="O3IuZ1JwcFy3WilJVtzP-50" target="O3IuZ1JwcFy3WilJVtzP-154">
          <mxGeometry relative="1" as="geometry" />
        </mxCell>
        <mxCell id="O3IuZ1JwcFy3WilJVtzP-179" style="edgeStyle=orthogonalEdgeStyle;rounded=0;orthogonalLoop=1;jettySize=auto;html=1;entryX=0.5;entryY=1;entryDx=0;entryDy=0;fontSize=18;fontColor=#FF0080;align=left;" edge="1" parent="1" source="O3IuZ1JwcFy3WilJVtzP-50" target="O3IuZ1JwcFy3WilJVtzP-176">
          <mxGeometry relative="1" as="geometry" />
        </mxCell>
        <mxCell id="O3IuZ1JwcFy3WilJVtzP-50" value="corrdior worker" style="rounded=1;whiteSpace=wrap;html=1;fillColor=#b0e3e6;strokeColor=#0e8088;" vertex="1" parent="1">
          <mxGeometry x="540" y="360" width="210" height="70" as="geometry" />
        </mxCell>
        <mxCell id="O3IuZ1JwcFy3WilJVtzP-43" value="receive dowkder" style="rounded=1;whiteSpace=wrap;html=1;fillColor=#b0e3e6;strokeColor=#0e8088;" vertex="1" parent="1">
          <mxGeometry x="385" y="500" width="230" height="70" as="geometry" />
        </mxCell>
        <mxCell id="O3IuZ1JwcFy3WilJVtzP-58" style="edgeStyle=orthogonalEdgeStyle;rounded=0;orthogonalLoop=1;jettySize=auto;html=1;exitX=1;exitY=0.5;exitDx=0;exitDy=0;entryX=0.5;entryY=1;entryDx=0;entryDy=0;" edge="1" parent="1" source="O3IuZ1JwcFy3WilJVtzP-49" target="O3IuZ1JwcFy3WilJVtzP-50">
          <mxGeometry relative="1" as="geometry" />
        </mxCell>
        <mxCell id="O3IuZ1JwcFy3WilJVtzP-59" value="传递生成的指纹" style="edgeLabel;html=1;align=center;verticalAlign=middle;resizable=0;points=[];" vertex="1" connectable="0" parent="O3IuZ1JwcFy3WilJVtzP-58">
          <mxGeometry x="-0.2786" y="-3" relative="1" as="geometry">
            <mxPoint as="offset" />
          </mxGeometry>
        </mxCell>
        <mxCell id="O3IuZ1JwcFy3WilJVtzP-49" value="gen fingerprint worker" style="rounded=1;whiteSpace=wrap;html=1;fillColor=#b0e3e6;strokeColor=#0e8088;" vertex="1" parent="1">
          <mxGeometry x="390" y="510" width="220" height="70" as="geometry" />
        </mxCell>
        <mxCell id="O3IuZ1JwcFy3WilJVtzP-56" value="本地文件" style="edgeStyle=orthogonalEdgeStyle;rounded=0;orthogonalLoop=1;jettySize=auto;html=1;exitX=1;exitY=0.5;exitDx=0;exitDy=0;entryX=0;entryY=0.5;entryDx=0;entryDy=0;" edge="1" parent="1" source="O3IuZ1JwcFy3WilJVtzP-34" target="O3IuZ1JwcFy3WilJVtzP-49">
          <mxGeometry relative="1" as="geometry" />
        </mxCell>
        <mxCell id="O3IuZ1JwcFy3WilJVtzP-65" value="watch 获取节点信息，保存到内存" style="edgeStyle=orthogonalEdgeStyle;rounded=0;orthogonalLoop=1;jettySize=auto;html=1;entryX=0;entryY=0.5;entryDx=0;entryDy=0;entryPerimeter=0;" edge="1" parent="1" source="O3IuZ1JwcFy3WilJVtzP-63" target="O3IuZ1JwcFy3WilJVtzP-64">
          <mxGeometry x="0.6484" y="-45" relative="1" as="geometry">
            <mxPoint as="offset" />
          </mxGeometry>
        </mxCell>
        <mxCell id="O3IuZ1JwcFy3WilJVtzP-177" style="edgeStyle=orthogonalEdgeStyle;rounded=0;orthogonalLoop=1;jettySize=auto;html=1;entryX=0.5;entryY=0;entryDx=0;entryDy=0;fontSize=18;fontColor=#FF0080;align=left;" edge="1" parent="1" source="O3IuZ1JwcFy3WilJVtzP-63" target="O3IuZ1JwcFy3WilJVtzP-176">
          <mxGeometry relative="1" as="geometry" />
        </mxCell>
        <mxCell id="O3IuZ1JwcFy3WilJVtzP-178" value="写入内存" style="edgeLabel;html=1;align=center;verticalAlign=bottom;resizable=0;points=[];fontSize=14;fontColor=#000000;" vertex="1" connectable="0" parent="O3IuZ1JwcFy3WilJVtzP-177">
          <mxGeometry x="0.4065" y="-4" relative="1" as="geometry">
            <mxPoint as="offset" />
          </mxGeometry>
        </mxCell>
        <mxCell id="O3IuZ1JwcFy3WilJVtzP-63" value="monitor" style="rounded=1;whiteSpace=wrap;html=1;fillColor=#b0e3e6;strokeColor=#0e8088;" vertex="1" parent="1">
          <mxGeometry x="350" y="165" width="175" height="70" as="geometry" />
        </mxCell>
        <mxCell id="O3IuZ1JwcFy3WilJVtzP-64" value="etcd" style="strokeWidth=2;html=1;shape=mxgraph.flowchart.database;whiteSpace=wrap;fillColor=#fff2cc;strokeColor=#d6b656;" vertex="1" parent="1">
          <mxGeometry x="750" y="-250" width="160" height="90" as="geometry" />
        </mxCell>
        <mxCell id="O3IuZ1JwcFy3WilJVtzP-72" style="edgeStyle=orthogonalEdgeStyle;rounded=0;orthogonalLoop=1;jettySize=auto;html=1;entryX=1;entryY=0.5;entryDx=0;entryDy=0;entryPerimeter=0;" edge="1" parent="1" source="O3IuZ1JwcFy3WilJVtzP-70" target="O3IuZ1JwcFy3WilJVtzP-64">
          <mxGeometry relative="1" as="geometry" />
        </mxCell>
        <mxCell id="O3IuZ1JwcFy3WilJVtzP-73" value="put 注册节点信息" style="edgeLabel;html=1;align=center;verticalAlign=middle;resizable=0;points=[];" vertex="1" connectable="0" parent="O3IuZ1JwcFy3WilJVtzP-72">
          <mxGeometry x="0.0694" y="3" relative="1" as="geometry">
            <mxPoint as="offset" />
          </mxGeometry>
        </mxCell>
        <mxCell id="O3IuZ1JwcFy3WilJVtzP-70" value="" style="rounded=1;whiteSpace=wrap;html=1;fillColor=#dae8fc;strokeColor=#6c8ebf;" vertex="1" parent="1">
          <mxGeometry x="1100" y="45" width="370" height="425" as="geometry" />
        </mxCell>
        <mxCell id="O3IuZ1JwcFy3WilJVtzP-71" value="provider server" style="text;html=1;strokeColor=none;fillColor=none;align=center;verticalAlign=middle;whiteSpace=wrap;rounded=0;" vertex="1" parent="1">
          <mxGeometry x="1245" y="55" width="115" height="35" as="geometry" />
        </mxCell>
        <mxCell id="O3IuZ1JwcFy3WilJVtzP-79" value="hot (group1)" style="shape=cylinder2;whiteSpace=wrap;html=1;boundedLbl=1;backgroundOutline=1;size=15;fontSize=14;fillColor=#fff2cc;strokeColor=#d6b656;" vertex="1" parent="1">
          <mxGeometry x="1165" y="220" width="80" height="70" as="geometry" />
        </mxCell>
        <mxCell id="O3IuZ1JwcFy3WilJVtzP-80" value="normal" style="shape=cylinder2;whiteSpace=wrap;html=1;boundedLbl=1;backgroundOutline=1;size=15;fontSize=14;fillColor=#fff2cc;strokeColor=#d6b656;" vertex="1" parent="1">
          <mxGeometry x="1310" y="220" width="80" height="70" as="geometry" />
        </mxCell>
        <mxCell id="O3IuZ1JwcFy3WilJVtzP-101" style="edgeStyle=orthogonalEdgeStyle;rounded=0;orthogonalLoop=1;jettySize=auto;html=1;entryX=0.463;entryY=0;entryDx=0;entryDy=0;entryPerimeter=0;fontSize=14;" edge="1" parent="1" source="O3IuZ1JwcFy3WilJVtzP-98" target="O3IuZ1JwcFy3WilJVtzP-80">
          <mxGeometry relative="1" as="geometry" />
        </mxCell>
        <mxCell id="O3IuZ1JwcFy3WilJVtzP-102" value="离线" style="edgeLabel;html=1;align=center;verticalAlign=middle;resizable=0;points=[];fontSize=14;" vertex="1" connectable="0" parent="O3IuZ1JwcFy3WilJVtzP-101">
          <mxGeometry x="-0.5753" y="2" relative="1" as="geometry">
            <mxPoint as="offset" />
          </mxGeometry>
        </mxCell>
        <mxCell id="O3IuZ1JwcFy3WilJVtzP-103" value="实时" style="edgeStyle=orthogonalEdgeStyle;rounded=0;orthogonalLoop=1;jettySize=auto;html=1;fontSize=14;" edge="1" parent="1" source="O3IuZ1JwcFy3WilJVtzP-98" target="O3IuZ1JwcFy3WilJVtzP-79">
          <mxGeometry relative="1" as="geometry" />
        </mxCell>
        <mxCell id="O3IuZ1JwcFy3WilJVtzP-98" value="query" style="rounded=1;whiteSpace=wrap;html=1;fontSize=14;fillColor=#d5e8d4;strokeColor=#82b366;" vertex="1" parent="1">
          <mxGeometry x="1145" y="110" width="120" height="50" as="geometry" />
        </mxCell>
        <mxCell id="O3IuZ1JwcFy3WilJVtzP-109" value="热度歌曲更新" style="edgeStyle=orthogonalEdgeStyle;rounded=0;orthogonalLoop=1;jettySize=auto;html=1;exitX=0.5;exitY=0;exitDx=0;exitDy=0;entryX=0.625;entryY=0.986;entryDx=0;entryDy=0;entryPerimeter=0;fontSize=14;" edge="1" parent="1" source="O3IuZ1JwcFy3WilJVtzP-108" target="O3IuZ1JwcFy3WilJVtzP-79">
          <mxGeometry relative="1" as="geometry" />
        </mxCell>
        <mxCell id="O3IuZ1JwcFy3WilJVtzP-110" style="edgeStyle=orthogonalEdgeStyle;rounded=0;orthogonalLoop=1;jettySize=auto;html=1;exitX=1;exitY=0.5;exitDx=0;exitDy=0;entryX=0.538;entryY=1;entryDx=0;entryDy=0;entryPerimeter=0;fontSize=14;" edge="1" parent="1" source="O3IuZ1JwcFy3WilJVtzP-108" target="O3IuZ1JwcFy3WilJVtzP-80">
          <mxGeometry relative="1" as="geometry" />
        </mxCell>
        <mxCell id="O3IuZ1JwcFy3WilJVtzP-111" value="日常歌曲写入/更新" style="edgeLabel;html=1;align=center;verticalAlign=middle;resizable=0;points=[];fontSize=14;" vertex="1" connectable="0" parent="O3IuZ1JwcFy3WilJVtzP-110">
          <mxGeometry x="0.4975" y="4" relative="1" as="geometry">
            <mxPoint as="offset" />
          </mxGeometry>
        </mxCell>
        <mxCell id="O3IuZ1JwcFy3WilJVtzP-155" style="rounded=0;orthogonalLoop=1;jettySize=auto;html=1;exitX=0;exitY=0.75;exitDx=0;exitDy=0;entryX=0.995;entryY=0.671;entryDx=0;entryDy=0;entryPerimeter=0;fontSize=18;fontColor=#FF0080;align=left;" edge="1" parent="1" source="O3IuZ1JwcFy3WilJVtzP-108" target="O3IuZ1JwcFy3WilJVtzP-50">
          <mxGeometry relative="1" as="geometry" />
        </mxCell>
        <mxCell id="O3IuZ1JwcFy3WilJVtzP-108" value="write" style="rounded=1;whiteSpace=wrap;html=1;fontSize=14;fillColor=#d5e8d4;strokeColor=#82b366;" vertex="1" parent="1">
          <mxGeometry x="1145" y="370" width="120" height="50" as="geometry" />
        </mxCell>
        <mxCell id="O3IuZ1JwcFy3WilJVtzP-112" style="edgeStyle=orthogonalEdgeStyle;rounded=0;orthogonalLoop=1;jettySize=auto;html=1;entryX=0;entryY=0.5;entryDx=0;entryDy=0;fontSize=14;" edge="1" parent="1" source="O3IuZ1JwcFy3WilJVtzP-50" target="O3IuZ1JwcFy3WilJVtzP-108">
          <mxGeometry relative="1" as="geometry" />
        </mxCell>
        <mxCell id="O3IuZ1JwcFy3WilJVtzP-113" value="轮询多个provider server 发出写入请求" style="edgeLabel;html=1;align=center;verticalAlign=bottom;resizable=0;points=[];fontSize=14;" vertex="1" connectable="0" parent="O3IuZ1JwcFy3WilJVtzP-112">
          <mxGeometry x="-0.0943" y="1" relative="1" as="geometry">
            <mxPoint as="offset" />
          </mxGeometry>
        </mxCell>
        <mxCell id="O3IuZ1JwcFy3WilJVtzP-151" value="get 获取节点信息，包括存放热点和非热点的节点" style="edgeStyle=orthogonalEdgeStyle;rounded=0;orthogonalLoop=1;jettySize=auto;html=1;exitX=0.5;exitY=0;exitDx=0;exitDy=0;entryX=0.5;entryY=0;entryDx=0;entryDy=0;entryPerimeter=0;fontSize=14;align=left;verticalAlign=bottom;" edge="1" parent="1" source="O3IuZ1JwcFy3WilJVtzP-141" target="O3IuZ1JwcFy3WilJVtzP-64">
          <mxGeometry relative="1" as="geometry" />
        </mxCell>
        <mxCell id="O3IuZ1JwcFy3WilJVtzP-141" value="proxy" style="rounded=1;whiteSpace=wrap;html=1;fontSize=14;fillColor=#dae8fc;strokeColor=#6c8ebf;" vertex="1" parent="1">
          <mxGeometry x="1090" y="-170" width="370" height="100" as="geometry" />
        </mxCell>
        <mxCell id="O3IuZ1JwcFy3WilJVtzP-143" value="查询多个provider server，获取结果汇总" style="edgeStyle=orthogonalEdgeStyle;rounded=0;orthogonalLoop=1;jettySize=auto;html=1;entryX=0.5;entryY=0;entryDx=0;entryDy=0;fontSize=14;align=left;" edge="1" parent="1" source="O3IuZ1JwcFy3WilJVtzP-142" target="O3IuZ1JwcFy3WilJVtzP-98">
          <mxGeometry relative="1" as="geometry" />
        </mxCell>
        <mxCell id="O3IuZ1JwcFy3WilJVtzP-142" value="proxy server" style="rounded=1;whiteSpace=wrap;html=1;fontSize=14;fillColor=#dae8fc;strokeColor=#6c8ebf;" vertex="1" parent="1">
          <mxGeometry x="1100" y="-160" width="370" height="100" as="geometry" />
        </mxCell>
        <mxCell id="O3IuZ1JwcFy3WilJVtzP-147" value="broker server" style="text;html=1;strokeColor=none;fillColor=none;align=center;verticalAlign=middle;whiteSpace=wrap;rounded=0;fontSize=14;" vertex="1" parent="1">
          <mxGeometry x="385" y="37.5" width="140" height="55" as="geometry" />
        </mxCell>
        <mxCell id="O3IuZ1JwcFy3WilJVtzP-153" value="etcd key&lt;br style=&quot;font-size: 18px;&quot;&gt;/audio_fingerprint/offline/{node_ip}&lt;br style=&quot;font-size: 18px;&quot;&gt;/audio_fingerprint/online/group1/{node_ip}" style="text;html=1;strokeColor=none;fillColor=none;align=center;verticalAlign=middle;whiteSpace=wrap;rounded=0;fontSize=18;labelBackgroundColor=#ffffff;fontColor=#FF0080;" vertex="1" parent="1">
          <mxGeometry x="682.5" y="-460" width="295" height="80" as="geometry" />
        </mxCell>
        <mxCell id="O3IuZ1JwcFy3WilJVtzP-154" value="mysql（存放全量指纹)" style="strokeWidth=2;html=1;shape=mxgraph.flowchart.database;whiteSpace=wrap;fillColor=#fff2cc;strokeColor=#d6b656;" vertex="1" parent="1">
          <mxGeometry x="925" y="570" width="190" height="140" as="geometry" />
        </mxCell>
        <mxCell id="O3IuZ1JwcFy3WilJVtzP-157" value="返回写入的db path，&lt;br&gt;用于记录歌曲指纹存放位置" style="edgeLabel;html=1;align=center;verticalAlign=bottom;resizable=0;points=[];fontSize=14;" vertex="1" connectable="0" parent="1">
          <mxGeometry x="970" y="420" as="geometry">
            <mxPoint x="-1" y="30" as="offset" />
          </mxGeometry>
        </mxCell>
        <mxCell id="O3IuZ1JwcFy3WilJVtzP-160" value="写入指纹数组以及存放的node ip 和 db path" style="text;html=1;strokeColor=none;fillColor=none;align=center;verticalAlign=bottom;whiteSpace=wrap;labelBackgroundColor=#ffffff;fontSize=14;fontColor=#000000;" vertex="1" parent="1">
          <mxGeometry x="1030" y="535" width="155" height="20" as="geometry" />
        </mxCell>
        <mxCell id="O3IuZ1JwcFy3WilJVtzP-176" value="节点信息" style="ellipse;whiteSpace=wrap;html=1;labelBackgroundColor=#ffffff;fontSize=18;fillColor=#e1d5e7;strokeColor=#9673a6;" vertex="1" parent="1">
          <mxGeometry x="660" y="155" width="107" height="90" as="geometry" />
        </mxCell>
      </root>
    </mxGraphModel>
  </diagram>
</mxfile>
